<?xml version="1.0" encoding="utf-8"?>
<!-- Generator: Adobe Illustrator 21.1.0, SVG Export Plug-In . SVG Version: 6.00 Build 0)  -->
<svg version="1.1" id="圖層_1" xmlns="http://www.w3.org/2000/svg" xmlns:xlink="http://www.w3.org/1999/xlink" x="0px" y="0px"
	 viewBox="0 0 396.7 591.2" style="enable-background:new 0 0 396.7 591.2;" xml:space="preserve">
<style type="text/css">
	.st0{fill:#EFEFEF;}
</style>
<title>Portfolio_web</title>
<g id="Home-fv">
	<polygon class="st0" points="47.6,83.4 47.5,73.9 144.4,73.6 144.4,7.4 227.8,7.4 227.8,16.9 153.9,16.9 153.9,83 	"/>
	<polygon class="st0" points="357.7,97.4 348.1,97.4 348.1,83.1 246.1,83.1 246.1,12.1 255.6,12.1 255.6,73.5 357.7,73.5 	"/>
	<polygon class="st0" points="256,150.4 167.8,150.4 167.8,140.9 246.5,140.9 246.5,107 352.9,107 352.9,116.5 256,116.5 	"/>
	<polygon class="st0" points="153.6,145.7 144,145.7 144,116.5 42.8,116.5 42.8,97.2 52.3,97.2 52.3,107 153.6,107 	"/>
	<polygon class="st0" points="199.8,476 85.8,380.9 120.5,380.9 120.5,390.4 112.1,390.4 199.8,463.6 272.6,403.6 278.6,410.9 	"/>
	<polygon class="st0" points="292.6,398.8 286.6,391.5 287.9,390.4 120.6,390.4 120.6,380.9 314.2,380.9 	"/>
	<polygon class="st0" points="228.4,584 144.8,584 144.8,532.5 14.4,532.5 14.4,523 154.3,523 154.3,574.4 228.4,574.4 	"/>
	<polygon class="st0" points="256,579.2 246.5,579.2 246.6,523 381.6,523 381.6,511.7 391.1,511.7 391.1,532.5 256.1,532.5 	"/>
	<polygon class="st0" points="19.2,513 9.7,513 9.7,488.9 386.4,488.9 386.4,498.4 19.2,498.4 	"/>
	<path class="st0" d="M200,354.6c-49.5,0-89.6-40.1-89.6-89.5s40.1-89.6,89.5-89.6c49.5,0,89.6,40.1,89.6,89.5
		c0,17.7-5.3,35.1-15.1,49.8l-3.7,5.5l-22-28.8l7.6-5.8l13.7,18c21.5-38.7,7.5-87.5-31.2-108.9s-87.5-7.5-108.9,31.2
		S122.3,313.5,161,335c29.4,16.3,65.9,12.5,91.3-9.5l-13.2-17.4l7.6-5.8l18.4,24.2l-3,2.9C245.4,345.6,223.1,354.6,200,354.6z"/>
</g>
</svg>
